HIERARCHY
ROOT Hips
{
	OFFSET 0.00 0.00 0.00
	CHANNELS 6 Xposition Yposition Zposition Xrotation Yrotation Zrotation
	JOINT Spine
	{
		OFFSET 0.00000 1.72418 2.58627
		CHANNELS 3 Xrotation Yrotation Zrotation
		JOINT Spine1
		{
			OFFSET 0.00000 0.59880 3.39597
			CHANNELS 3 Xrotation Yrotation Zrotation
			JOINT Spine2
			{
				OFFSET 0.00000 0.30055 3.43524
				CHANNELS 3 Xrotation Yrotation Zrotation
				JOINT Spine3
				{
					OFFSET 0.00000 0.00000 3.44836
					CHANNELS 3 Xrotation Yrotation Zrotation
					JOINT Neck
					{
						OFFSET 0.00000 -1.29313 9.05195
						CHANNELS 3 Xrotation Yrotation Zrotation
						JOINT Head
						{
							OFFSET 0.00000 -0.82335 4.66946
							CHANNELS 3 Xrotation Yrotation Zrotation
							End Site
							{
								OFFSET 0.00000 0.00001 5.58203
							}
						}
					}
					JOINT RightShoulder
					{
						OFFSET -1.18828 -1.98046 6.41673
						CHANNELS 3 Xrotation Yrotation Zrotation
						JOINT RightArm
						{
							OFFSET -5.90180 0.00000 0.00000
							CHANNELS 3 Xrotation Yrotation Zrotation
							JOINT RightForeArm
							{
								OFFSET -11.45951 0.00000 0.00000
								CHANNELS 3 Xrotation Yrotation Zrotation
								JOINT RightHand
								{
									OFFSET -10.63451 0.00000 0.00000
									CHANNELS 3 Xrotation Yrotation Zrotation
									JOINT RightHandEnd
									{
										OFFSET -2.86944 0.00000 0.00000
										CHANNELS 3 Xrotation Yrotation Zrotation
										End Site
										{
											OFFSET -2.86944 0.00000 0.00000
										}
									}
									JOINT RightHandThumb1
									{
										OFFSET -1.14778 -1.91296 -0.76518
										CHANNELS 3 Yrotation Xrotation Zrotation
										End Site
										{
											OFFSET -2.77167 -0.74267 0.00000
										}
									}
								}
							}
						}
					}
					JOINT LeftShoulder
					{
						OFFSET 1.18828 -1.98046 6.41673
						CHANNELS 3 Xrotation Yrotation Zrotation
						JOINT LeftArm
						{
							OFFSET 5.90180 0.00000 0.00000
							CHANNELS 3 Xrotation Yrotation Zrotation
							JOINT LeftForeArm
							{
								OFFSET 11.45951 0.00000 0.00000
								CHANNELS 3 Xrotation Yrotation Zrotation
								JOINT LeftHand
								{
									OFFSET 10.63451 0.00000 0.00000
									CHANNELS 3 Xrotation Yrotation Zrotation
									JOINT LeftHandEnd
									{
										OFFSET 2.86944 0.00000 0.00000
										CHANNELS 3 Xrotation Yrotation Zrotation
										End Site
										{
											OFFSET 2.86944 0.00000 0.00000
										}
									}
									JOINT LeftHandThumb1
									{
										OFFSET 1.14778 -1.91296 -0.76518
										CHANNELS 3 Yrotation Xrotation Zrotation
										End Site
										{
											OFFSET 2.77167 -0.74267 0.00000
										}
									}
								}
							}
						}
					}
				}
			}
		}
	}
	JOINT RightUpLeg
	{
		OFFSET -3.52524 0.00000 -1.02984
		CHANNELS 3 Xrotation Yrotation Zrotation
		JOINT RightLeg
		{
			OFFSET 0.00001 0.00000 -17.80965
			CHANNELS 3 Xrotation Yrotation Zrotation
			JOINT RightFoot
			{
				OFFSET 0.00001 0.00000 -17.00908
				CHANNELS 3 Xrotation Yrotation Zrotation
				JOINT RightToeBase
				{
					OFFSET 0.00000 -5.55853 -2.02314
					CHANNELS 3 Xrotation Yrotation Zrotation
					End Site
					{
						OFFSET 0.00000 -2.85188 -0.00000
					}
				}
			}
		}
	}
	JOINT LeftUpLeg
	{
		OFFSET 3.52524 0.00000 -1.02984
		CHANNELS 3 Xrotation Yrotation Zrotation
		JOINT LeftLeg
		{
			OFFSET 0.00001 0.00000 -17.80965
			CHANNELS 3 Xrotation Yrotation Zrotation
			JOINT LeftFoot
			{
				OFFSET 0.00001 0.00000 -17.00908
				CHANNELS 3 Xrotation Yrotation Zrotation
				JOINT LeftToeBase
				{
					OFFSET 0.00000 -5.55853 -2.02314
					CHANNELS 3 Xrotation Yrotation Zrotation
					End Site
					{
						OFFSET 0.00000 -2.85188 -0.00000
					}
				}
			}
		}
	}
}
MOTION
Frames: 15
Frame Time: 0.016683
 3.0273 -7.5634 36.0371 -0.9136 -0.1301 -172.7512 1.0152 3.4422 -0.9953 0.1545 1.1370 -0.2330 6.4083 -6.4900 -6.3851 1.8654 -2.2699 1.0119 1.3231 -5.1832 -3.5977 -1.3021 4.8193 5.3281 14.2358 -18.9336 -2.7867 27.1785 -5.6844 27.7635 0.0000 0.0000 28.8884 7.3801 16.0661 -2.8992 -0.0000 0.0000 0.0000 0.0000 0.0000 0.0000 20.0716 -2.8402 -19.4401 34.4440 11.0671 -56.4901 -0.0000 -0.0000 -57.4262 7.8331 -15.7324 -2.0529 -0.0000 -0.0000 0.0000 -0.0000 0.0000 -0.0000 -20.7020 -3.9116 -11.4303 38.5783 0.0000 0.0000 -22.2522 7.1641 -6.2056 -1.5781 0.0000 -0.0000 -17.1049 -2.2611 1.5580 69.4745 0.0000 0.0000 -10.7756 -5.2800 8.1962 -15.6165 0.0000 -0.0000
 3.0212 -7.0005 36.3783 -1.0041 0.4553 -173.3184 0.9097 3.2842 -0.8023 0.1464 1.1226 -0.1751 6.3477 -5.3923 -5.4978 1.9207 -2.0706 0.9116 1.7096 -4.1558 -3.1054 -1.0731 4.0929 4.4695 14.5797 -18.8914 -0.8629 28.8081 -6.9696 29.2709 0.0000 0.0000 29.6165 7.2227 15.9300 -2.2264 -0.0000 0.0000 -0.0000 -0.0000 0.0000 0.0000 20.2697 -1.3020 -18.5083 34.9170 10.3750 -54.3906 -0.0000 -0.0000 -54.6465 8.8765 -15.9891 -1.5045 -0.0000 0.0000 -0.0000 0.0000 -0.0000 0.0000 -18.1939 -3.7371 -11.0100 35.4347 0.0000 0.0000 -21.6431 7.0943 -5.5354 -1.6838 0.0000 -0.0000 -19.1956 -1.7847 1.9516 67.1857 0.0000 0.0000 -11.2782 -4.6590 9.1278 -14.7187 0.0000 -0.0000
 3.0011 -6.4328 36.6799 -1.0794 1.0567 -174.0362 0.8229 3.0506 -0.5927 0.1374 1.0989 -0.1203 6.2389 -4.2645 -4.5055 1.9778 -1.7940 0.7997 2.1077 -3.1231 -2.6010 -0.8694 3.3661 3.6389 14.9346 -18.6826 1.0529 30.3373 -8.2601 31.0487 0.0000 0.0000 30.3441 6.9896 15.8234 -1.6791 0.0000 -0.0000 0.0000 -0.0000 -0.0000 0.0000 20.2257 0.3771 -17.4153 35.4867 9.4738 -52.1704 -0.0000 -0.0000 -52.2099 9.5824 -16.0576 -1.1255 0.0000 0.0000 -0.0000 0.0000 0.0000 0.0000 -15.7349 -3.4732 -10.6277 32.4020 0.0000 0.0000 -21.0137 7.0208 -4.6625 -1.7566 0.0000 -0.0000 -20.9923 -1.3303 2.5506 64.2158 0.0000 0.0000 -11.7632 -4.0022 10.0606 -13.7207 0.0000 -0.0000
 2.9679 -5.8645 36.9349 -1.1841 1.6391 -174.9057 0.7087 2.7376 -0.3701 0.1360 1.0213 -0.0639 6.0908 -3.0811 -3.4409 2.0374 -1.4590 0.6841 2.4929 -2.0999 -2.0813 -0.7074 2.6544 2.8496 15.3001 -18.2336 2.9431 31.7477 -9.5655 33.1645 0.0000 0.0000 31.0605 6.6359 15.7263 -1.2839 -0.0000 0.0000 -0.0000 0.0000 -0.0000 -0.0000 19.8976 2.1759 -16.1321 36.1781 8.3617 -49.8276 -0.0000 -0.0000 -50.1371 9.9159 -15.9025 -0.9583 -0.0000 0.0000 -0.0000 -0.0000 0.0000 0.0000 -13.4402 -3.1359 -10.3063 29.5833 0.0000 0.0000 -20.4511 6.9557 -3.5999 -1.7814 0.0000 -0.0000 -22.5707 -0.9462 3.3345 60.6674 0.0000 0.0000 -12.0019 -3.3141 10.7964 -12.9949 0.0000 -0.0000
 2.9262 -5.2955 37.1391 -1.2734 2.1158 -175.9139 0.6125 2.2496 -0.1357 0.1360 0.9494 -0.0046 5.9215 -1.9056 -2.3254 2.0949 -1.0603 0.5525 2.8498 -1.1104 -1.5461 -0.5915 1.9702 2.1199 15.6537 -17.5071 4.8106 33.0624 -10.8521 35.6257 0.0000 0.0000 31.7951 6.1576 15.6340 -1.0342 0.0000 0.0000 0.0000 0.0000 -0.0000 0.0000 19.2680 4.0017 -14.6659 36.9779 7.1670 -47.3505 -0.0000 -0.0000 -48.4572 9.9491 -15.5017 -0.9862 0.0000 -0.0000 0.0000 0.0000 -0.0000 0.0000 -11.2914 -2.8242 -10.0544 27.0111 0.0000 0.0000 -20.0283 6.8666 -2.4091 -1.7822 0.0000 -0.0000 -23.9198 -0.7356 4.2300 56.6753 0.0000 0.0000 -11.9105 -2.4731 11.1542 -12.6787 0.0000 -0.0000
 2.8828 -4.7275 37.2881 -1.3759 2.4107 -177.0368 0.5022 1.5650 0.1060 0.1397 0.8392 0.0449 5.7469 -0.7230 -1.1789 2.1540 -0.6267 0.4074 3.1585 -0.1569 -0.9960 -0.5136 1.3072 1.4599 15.9718 -16.4965 6.6508 34.2969 -12.0447 38.4081 0.0000 0.0000 32.5968 5.5696 15.5646 -0.9112 -0.0000 -0.0000 -0.0000 0.0000 -0.0000 -0.0000 18.4177 5.7744 -13.0422 37.7759 5.9638 -44.7140 -0.0000 -0.0000 -47.1940 9.7904 -14.8824 -1.1576 -0.0000 -0.0000 0.0000 -0.0000 -0.0000 0.0000 -9.3425 -2.6338 -9.8277 24.7282 0.0000 0.0000 -19.7943 6.7042 -1.1931 -1.7949 0.0000 -0.0000 -25.1066 -0.7738 5.1571 52.3819 0.0000 0.0000 -11.5602 -1.3742 11.0548 -12.6502 0.0000 -0.0000
 2.8428 -4.1580 37.3806 -1.4571 2.4960 -178.2416 0.4142 0.6997 0.3526 0.1494 0.6922 0.0830 5.5740 0.4350 -0.0388 2.2188 -0.1781 0.2547 3.4043 0.7511 -0.4385 -0.4522 0.6646 0.8836 16.2543 -15.2306 8.4691 35.4400 -13.0395 41.4440 0.0000 0.0000 33.5267 4.8708 15.5688 -0.8890 -0.0000 0.0000 -0.0000 0.0000 -0.0000 -0.0000 17.4671 7.4103 -11.3038 38.4349 4.8255 -41.9157 -0.0000 -0.0000 -46.3500 9.5760 -14.0880 -1.4199 0.0000 -0.0000 0.0000 0.0000 -0.0000 -0.0000 -7.5559 -2.6136 -9.5727 22.7693 0.0000 0.0000 -19.7683 6.4337 -0.0391 -1.8315 0.0000 -0.0000 -26.1018 -1.0780 6.0559 47.8812 0.0000 0.0000 -11.0951 -0.0422 10.5198 -12.6554 0.0000 -0.0000
 2.8117 -3.5849 37.4163 -1.5135 2.3352 -179.4832 0.3609 -0.3333 0.5968 0.1651 0.5009 0.1045 5.4010 1.5398 1.0676 2.2894 0.2698 0.1048 3.5822 1.6056 0.1083 -0.3834 0.0421 0.4009 16.5142 -13.7607 10.2660 36.4409 -13.7542 44.6277 0.0000 0.0000 34.6512 4.0356 15.6986 -0.9430 0.0000 0.0000 -0.0000 -0.0000 -0.0000 0.0000 16.5455 8.8535 -9.5105 38.8373 3.7862 -38.9763 -0.0000 -0.0000 -45.8941 9.4295 -13.1814 -1.7400 -0.0000 0.0000 -0.0000 0.0000 -0.0000 -0.0000 -5.9206 -2.8167 -9.2345 21.1647 0.0000 0.0000 -19.9317 6.0645 0.9744 -1.8707 0.0000 -0.0000 -26.9192 -1.6617 6.8780 43.2661 0.0000 0.0000 -10.6365 1.3723 9.6149 -12.4843 0.0000 -0.0000
 2.7913 -3.0078 37.3982 -1.5782 1.9423 179.2816 0.3236 -1.5115 0.8307 0.1824 0.3460 0.1303 5.2303 2.5000 2.1125 2.3618 0.7128 -0.0429 3.6939 2.3977 0.6312 -0.2933 -0.5501 0.0106 16.7588 -12.1588 12.0501 37.2282 -14.1514 47.8094 0.0000 0.0000 36.0379 3.0313 15.9761 -1.0477 0.0000 0.0000 -0.0000 -0.0000 0.0000 0.0000 15.7419 10.0914 -7.7068 38.9331 2.8310 -35.9520 -0.0000 -0.0000 -45.7470 9.4335 -12.2406 -2.1052 0.0000 0.0000 0.0000 0.0000 -0.0000 -0.0000 -4.4742 -3.2335 -8.7652 19.9662 0.0000 0.0000 -20.2720 5.6464 1.7967 -1.8715 0.0000 -0.0000 -27.6118 -2.4827 7.6150 38.6100 0.0000 0.0000 -10.2004 2.6903 8.4125 -12.0984 0.0000 -0.0000
 2.7804 -2.4262 37.3334 -1.6860 1.3836 178.0963 0.2775 -2.7255 1.0427 0.2026 0.1734 0.1471 5.0600 3.3462 3.0796 2.4284 1.1316 -0.1589 3.7491 3.1161 1.1162 -0.1863 -1.1021 -0.3045 17.0163 -10.5106 13.8195 37.7126 -14.2155 50.8439 0.0000 0.0000 37.7310 1.8254 16.3955 -1.1725 0.0000 0.0000 -0.0000 -0.0000 -0.0000 -0.0000 15.0594 11.1296 -5.9368 38.7640 1.9566 -32.9011 -0.0000 -0.0000 -45.8097 9.6468 -11.3330 -2.5054 -0.0000 0.0000 0.0000 0.0000 -0.0000 0.0000 -3.2586 -3.7969 -8.1434 19.2164 0.0000 0.0000 -20.7951 5.2418 2.3987 -1.8070 0.0000 -0.0000 -28.2373 -3.4455 8.2796 33.9762 0.0000 0.0000 -9.7033 3.8218 6.9791 -11.6380 0.0000 -0.0000
 2.7747 -1.8363 37.2329 -1.7893 0.7730 176.9975 0.2718 -3.8648 1.2217 0.2209 0.0026 0.1561 4.8972 4.0759 3.9874 2.4806 1.5172 -0.2531 3.7582 3.7511 1.5564 -0.0771 -1.6092 -0.5762 17.2484 -8.8873 15.5609 37.8726 -14.0367 53.6123 -0.0000 0.0000 39.7584 0.4839 16.8905 -1.2880 0.0000 0.0000 0.0000 -0.0000 0.0000 0.0000 14.4791 11.9665 -4.2172 38.4087 1.1345 -29.9152 -0.0000 -0.0000 -45.9565 10.0758 -10.5356 -2.9213 0.0000 -0.0000 -0.0000 -0.0000 0.0000 0.0000 -2.2126 -4.3807 -7.4118 18.9084 0.0000 0.0000 -21.5187 4.8794 2.8031 -1.6924 0.0000 -0.0000 -28.7530 -4.4053 8.9018 29.4123 0.0000 0.0000 -9.0335 4.8169 5.3932 -11.3082 0.0000 -0.0000
 2.7711 -1.2358 37.1063 -1.8974 0.2004 176.0209 0.2790 -4.8540 1.3612 0.2389 -0.1369 0.1644 4.7512 4.6890 4.8301 2.5144 1.8626 -0.3273 3.7329 4.2856 1.9528 0.0124 -2.0633 -0.8394 17.4347 -7.3411 17.2557 37.7086 -13.7071 56.0559 -0.0000 0.0000 42.1116 -0.8931 17.3823 -1.3489 0.0000 0.0000 -0.0000 0.0000 -0.0000 -0.0000 13.9530 12.5932 -2.5531 37.9654 0.3626 -27.0690 -0.0000 -0.0000 -46.0853 10.7274 -9.9001 -3.3070 -0.0000 0.0000 -0.0000 0.0000 0.0000 -0.0000 -1.3279 -4.8918 -6.6308 18.9972 0.0000 0.0000 -22.4463 4.5524 3.0338 -1.5849 0.0000 -0.0000 -29.1942 -5.2502 9.4925 25.0170 0.0000 0.0000 -8.1449 5.8312 3.7710 -11.2242 0.0000 -0.0000
 2.7682 -0.6189 36.9613 -1.9856 -0.2754 175.1986 0.2910 -5.6426 1.4650 0.2586 -0.2424 0.1743 4.6324 5.2156 5.5926 2.5311 2.1552 -0.3803 3.6868 4.7039 2.3005 0.0681 -2.4701 -1.1193 17.5470 -5.8892 18.8632 37.2634 -13.3372 58.1900 -0.0000 0.0000 44.7557 -2.1498 17.8003 -1.3305 -0.0000 0.0000 -0.0000 0.0000 0.0000 0.0000 13.4650 12.9713 -0.9472 37.5003 -0.3406 -24.4420 -0.0000 -0.0000 -46.1179 11.5816 -9.4402 -3.6105 -0.0000 -0.0000 -0.0000 -0.0000 0.0000 -0.0000 -0.5275 -5.2703 -5.8924 19.3775 0.0000 0.0000 -23.5506 4.2187 3.1454 -1.5515 0.0000 -0.0000 -29.5647 -5.9068 10.0557 20.9469 0.0000 0.0000 -7.1157 7.0193 2.2681 -11.3368 0.0000 -0.0000
 2.7665 0.0220 36.8029 -2.0111 -0.6407 174.5644 0.3143 -6.2224 1.5416 0.2824 -0.2974 0.1888 4.5456 5.6651 6.2526 2.5356 2.3867 -0.4217 3.6412 4.9887 2.5918 0.0843 -2.8350 -1.4233 17.5710 -4.5280 20.3457 36.5940 -13.0271 60.0635 -0.0000 0.0000 47.6483 -3.1617 18.1088 -1.2213 0.0000 0.0000 0.0000 -0.0000 -0.0000 0.0000 13.0334 13.0704 0.5944 37.0386 -0.9496 -22.0771 -0.0000 -0.0000 -46.0221 12.6206 -9.1156 -3.7896 -0.0000 0.0000 -0.0000 0.0000 -0.0000 0.0000 0.3122 -5.5025 -5.3012 19.9021 0.0000 0.0000 -24.7666 3.8291 3.2111 -1.6275 0.0000 -0.0000 -29.8667 -6.3525 10.5960 17.4428 0.0000 0.0000 -6.1493 8.4232 1.0357 -11.4699 0.0000 -0.0000
 2.7673 0.6923 36.6348 -1.9453 -0.9054 174.1514 0.3559 -6.6067 1.6009 0.3063 -0.2995 0.2059 4.4888 6.0452 6.7937 2.5372 2.5672 -0.4646 3.6196 5.1205 2.8076 0.0611 -3.1717 -1.7424 17.5026 -3.2455 21.6597 35.7624 -12.8622 61.7588 -0.0000 0.0001 50.7269 -3.8814 18.3156 -1.0166 0.0000 0.0000 0.0000 0.0000 0.0000 0.0000 12.6878 12.8870 2.0561 36.5827 -1.4643 -19.9662 -0.0000 -0.0000 -45.8060 13.7926 -8.8339 -3.8364 -0.0000 -0.0000 -0.0000 -0.0000 0.0000 -0.0000 1.3016 -5.6005 -4.9463 20.4246 0.0000 0.0000 -26.0091 3.3584 3.2976 -1.7991 0.0000 -0.0000 -30.1293 -6.5949 11.1447 14.7953 0.0000 0.0000 -5.4892 9.9110 0.1396 -11.4400 0.0000 -0.0000
